<svg version="1.1" xmlns="http://www.w3.org/2000/svg" xmlns:xlink="http://www.w3.org/1999/xlink" preserveAspectRatio="xMidYMid meet" viewBox="457 214 365 161"><g data-item-type="text" data-item="Business" id="logo__item--business" class="logo__item">
                <g class="logo__item__inner" transform="translate(460.5 368.26726444527463) scale(1 1) rotate(0 0 0)">
                    <text data-part-id="logo__item--business" dy="0" dominant-baseline="auto" alignment-baseline="auto" font-family="Montserrat" font-size="32px" fill="#C3996B" letter-spacing="0" font-weight="bold" font-style="normal" data-font-family="Montserrat" data-font-weight="bold" data-font-style="normal" data-ttf-url="/builder_assets/fontsttf/font-montserrat-bold-normal.ttf">Адвокат Емельянов</text>
                </g>
            </g><g data-item-type="image" data-item="Image" data-logo-item="" id="logo__item--logo_0" class="logo__item">
    <g class="logo__item__inner" transform="translate(554.6031556194458 202.5) scale(1.4179368199985865 1.4179368199985865) rotate(0 0 0)">

<g>

		<rect x="41.98" y="70.036" transform="matrix(-0.7071 0.7071 -0.7071 -0.7071 140.5529 97.8963)" fill="#C3996B" width="16.044" height="16.043" data-part-id="logo__item--logo_0__0"></rect>
	<polygon fill="#3B2314" points="34.616,78.058 38.646,74.025 16.663,65.788 50.004,19.776 83.342,65.788 61.261,73.927    65.389,78.058 64.014,79.435 92.315,68.995 50.004,10.597 7.685,68.995 36.263,79.704  " data-part-id="logo__item--logo_0__1"></polygon>
	<path fill="#5A4A42" d="M42.022,33.401h6.419v2.004h-7.874l-1.001,1.384h8.875v2.007h-9.897v-0.599L19.107,65.023l20.761,7.781   l2.842-2.844V43.087h2.009v24.865l1.715-1.711V43.087h2.006v21.146l0.489-0.491V23.866L42.022,33.401z M48.441,42.186h-7.959   v-2.004h7.959V42.186z" data-part-id="logo__item--logo_0__2"></path>
	<path fill="#CA7C29" d="M61.458,38.197v0.599h-9.896v-2.007h8.874l-1.002-1.384h-7.872v-2.004h6.423l-6.913-9.535v39.875   l0.49,0.491V43.087h2.007v23.154l1.713,1.711V43.087h2.009v26.874l2.754,2.754l20.85-7.691L61.458,38.197z M59.52,42.186h-7.957   v-2.004h7.957V42.186z" data-part-id="logo__item--logo_0__3"></path>
</g>

    </g>
</g></svg>
